<?xml version="1.0" standalone="no"?><!DOCTYPE svg PUBLIC "-//W3C//DTD SVG 1.1//EN" "http://www.w3.org/Graphics/SVG/1.1/DTD/svg11.dtd"><svg class="icon" height="512" viewBox="0 0 1024 1024" version="1.1" xmlns="http://www.w3.org/2000/svg"><path d="M249.856 654.336c-32.5632 0-58.88 26.0096-58.88 57.9584s26.3168 57.9584 58.88 57.9584 58.88-25.9072 58.88-57.9584S282.4192 654.336 249.856 654.336L249.856 654.336zM512 64.3072C264.704 64.3072 64.3072 264.704 64.3072 512S264.704 959.6928 512 959.6928 959.6928 759.296 959.6928 512 759.296 64.3072 512 64.3072L512 64.3072zM773.12 575.2832l-10.5472 10.3424c-59.904 59.1872-149.9136 63.7952-215.2448 17.6128-34.6112 37.376-176.5376 194.8672-176.5376 194.8672-23.7568 23.552-94.1056 49.0496-143.7696 0s-23.8592-118.4768 0-142.0288l198.7584-173.2608c-45.1584-64.6144-39.936-152.576 19.2512-211.3536l10.6496-10.3424c51.2-50.5856 157.0816-51.8144 209.2032-51.6096 16.1792 0.1024 5.0176 12.3904 5.0176 12.3904s-86.9376 85.6064-98.5088 97.1776-9.4208 34.9184-9.4208 34.9184 8.0896 83.7632 19.6608 95.3344 92.9792 20.48 92.9792 20.48 30.72 0.9216 39.8336-8.0896 98.0992-97.3824 98.0992-97.3824 12.3904-10.752 12.288 5.9392C824.4224 422.7072 822.784 526.1312 773.12 575.2832L773.12 575.2832 773.12 575.2832z" /></svg>